<mxfile host="app.diagrams.net" modified="2021-02-22T02:21:54.035Z" agent="5.0 (Macintosh; Intel Mac OS X 10_15_7) AppleWebKit/537.36 (KHTML, like Gecko) Chrome/88.0.4324.182 Safari/537.36" etag="QzgbB1_G6YhDm_xsuRck" version="14.4.2" type="github">
  <diagram name="Page-1" id="c7558073-3199-34d8-9f00-42111426c3f3">
    <mxGraphModel dx="885" dy="813" grid="1" gridSize="10" guides="1" tooltips="1" connect="1" arrows="1" fold="1" page="1" pageScale="1" pageWidth="1169" pageHeight="827" background="#ffffff" math="0" shadow="0">
      <root>
        <mxCell id="0" />
        <mxCell id="1" parent="0" />
        <mxCell id="M7rPKfQgBQblH7y-iEyT-141" style="edgeStyle=orthogonalEdgeStyle;rounded=0;orthogonalLoop=1;jettySize=auto;html=1;exitX=0.5;exitY=1;exitDx=0;exitDy=0;entryX=0.5;entryY=0;entryDx=0;entryDy=0;" edge="1" parent="1" source="6" target="M7rPKfQgBQblH7y-iEyT-106">
          <mxGeometry relative="1" as="geometry" />
        </mxCell>
        <mxCell id="M7rPKfQgBQblH7y-iEyT-142" style="edgeStyle=orthogonalEdgeStyle;rounded=0;orthogonalLoop=1;jettySize=auto;html=1;exitX=0.5;exitY=1;exitDx=0;exitDy=0;" edge="1" parent="1" source="6" target="M7rPKfQgBQblH7y-iEyT-137">
          <mxGeometry relative="1" as="geometry" />
        </mxCell>
        <mxCell id="6" value="&lt;p style=&quot;margin: 0px ; margin-top: 4px ; text-align: center ; text-decoration: underline&quot;&gt;렌딩 페이지&lt;/p&gt;&lt;p style=&quot;margin: 4px 0px 0px ; text-align: center&quot;&gt;구름책방 소개&amp;nbsp;및 기능 설명&lt;/p&gt;" style="verticalAlign=middle;align=center;overflow=fill;fontSize=12;fontFamily=Helvetica;html=1;rounded=1;fontStyle=1;strokeWidth=3;fillColor=#E6FFCC" parent="1" vertex="1">
          <mxGeometry x="510" y="40" width="150" height="50" as="geometry" />
        </mxCell>
        <mxCell id="M7rPKfQgBQblH7y-iEyT-136" style="edgeStyle=orthogonalEdgeStyle;rounded=0;orthogonalLoop=1;jettySize=auto;html=1;entryX=0.5;entryY=0;entryDx=0;entryDy=0;" edge="1" parent="1" source="M7rPKfQgBQblH7y-iEyT-106" target="M7rPKfQgBQblH7y-iEyT-108">
          <mxGeometry relative="1" as="geometry" />
        </mxCell>
        <mxCell id="M7rPKfQgBQblH7y-iEyT-106" value="&lt;p style=&quot;margin: 0px ; margin-top: 4px ; text-align: center ; text-decoration: underline&quot;&gt;&lt;span&gt;navigation bar&lt;/span&gt;&lt;br&gt;&lt;/p&gt;" style="verticalAlign=middle;align=center;overflow=fill;fontSize=12;fontFamily=Helvetica;html=1;rounded=1;fontStyle=1;strokeWidth=3;fillColor=#E6FFCC" vertex="1" parent="1">
          <mxGeometry x="215" y="160" width="150" height="30" as="geometry" />
        </mxCell>
        <mxCell id="M7rPKfQgBQblH7y-iEyT-130" style="edgeStyle=orthogonalEdgeStyle;rounded=0;orthogonalLoop=1;jettySize=auto;html=1;exitX=0.5;exitY=1;exitDx=0;exitDy=0;entryX=0.448;entryY=-0.067;entryDx=0;entryDy=0;entryPerimeter=0;" edge="1" parent="1" source="M7rPKfQgBQblH7y-iEyT-108" target="M7rPKfQgBQblH7y-iEyT-110">
          <mxGeometry relative="1" as="geometry" />
        </mxCell>
        <mxCell id="M7rPKfQgBQblH7y-iEyT-131" style="edgeStyle=orthogonalEdgeStyle;rounded=0;orthogonalLoop=1;jettySize=auto;html=1;exitX=0.5;exitY=1;exitDx=0;exitDy=0;entryX=0.5;entryY=0;entryDx=0;entryDy=0;" edge="1" parent="1" source="M7rPKfQgBQblH7y-iEyT-108" target="M7rPKfQgBQblH7y-iEyT-112">
          <mxGeometry relative="1" as="geometry" />
        </mxCell>
        <mxCell id="M7rPKfQgBQblH7y-iEyT-108" value="&lt;p style=&quot;margin: 0px ; margin-top: 4px ; text-align: center ; text-decoration: underline&quot;&gt;&lt;span&gt;소셜 로그인&lt;/span&gt;&lt;br&gt;&lt;/p&gt;&lt;p style=&quot;margin: 0px ; margin-top: 4px ; text-align: center ; text-decoration: underline&quot;&gt;(Kakaotalk, Google, Facebook)&lt;/p&gt;&lt;p style=&quot;margin: 0px ; margin-top: 4px ; text-align: center ; text-decoration: underline&quot;&gt;&lt;br&gt;&lt;/p&gt;" style="verticalAlign=middle;align=center;overflow=fill;fontSize=12;fontFamily=Helvetica;html=1;rounded=1;fontStyle=1;strokeWidth=3;fillColor=#E6FFCC" vertex="1" parent="1">
          <mxGeometry x="180" y="230" width="220" height="50" as="geometry" />
        </mxCell>
        <mxCell id="M7rPKfQgBQblH7y-iEyT-110" value="&lt;p style=&quot;margin: 0px ; margin-top: 4px ; text-align: center ; text-decoration: underline&quot;&gt;&lt;span&gt;로그 아웃&lt;/span&gt;&lt;br&gt;&lt;/p&gt;" style="verticalAlign=middle;align=center;overflow=fill;fontSize=12;fontFamily=Helvetica;html=1;rounded=1;fontStyle=1;strokeWidth=3;fillColor=#E6FFCC" vertex="1" parent="1">
          <mxGeometry x="100" y="340" width="105" height="30" as="geometry" />
        </mxCell>
        <mxCell id="M7rPKfQgBQblH7y-iEyT-125" style="edgeStyle=orthogonalEdgeStyle;rounded=0;orthogonalLoop=1;jettySize=auto;html=1;exitX=0.5;exitY=1;exitDx=0;exitDy=0;" edge="1" parent="1" source="M7rPKfQgBQblH7y-iEyT-112">
          <mxGeometry relative="1" as="geometry">
            <mxPoint x="522.5" y="480" as="targetPoint" />
          </mxGeometry>
        </mxCell>
        <mxCell id="M7rPKfQgBQblH7y-iEyT-126" style="edgeStyle=orthogonalEdgeStyle;rounded=0;orthogonalLoop=1;jettySize=auto;html=1;exitX=0.5;exitY=1;exitDx=0;exitDy=0;entryX=0.5;entryY=0;entryDx=0;entryDy=0;" edge="1" parent="1" source="M7rPKfQgBQblH7y-iEyT-112" target="M7rPKfQgBQblH7y-iEyT-119">
          <mxGeometry relative="1" as="geometry" />
        </mxCell>
        <mxCell id="M7rPKfQgBQblH7y-iEyT-127" style="edgeStyle=orthogonalEdgeStyle;rounded=0;orthogonalLoop=1;jettySize=auto;html=1;exitX=0.5;exitY=1;exitDx=0;exitDy=0;entryX=0.5;entryY=0;entryDx=0;entryDy=0;" edge="1" parent="1" source="M7rPKfQgBQblH7y-iEyT-112" target="M7rPKfQgBQblH7y-iEyT-118">
          <mxGeometry relative="1" as="geometry" />
        </mxCell>
        <mxCell id="M7rPKfQgBQblH7y-iEyT-128" style="edgeStyle=orthogonalEdgeStyle;rounded=0;orthogonalLoop=1;jettySize=auto;html=1;exitX=0.5;exitY=1;exitDx=0;exitDy=0;entryX=0.5;entryY=0;entryDx=0;entryDy=0;" edge="1" parent="1" source="M7rPKfQgBQblH7y-iEyT-112">
          <mxGeometry relative="1" as="geometry">
            <mxPoint x="72.5" y="480" as="targetPoint" />
          </mxGeometry>
        </mxCell>
        <mxCell id="M7rPKfQgBQblH7y-iEyT-112" value="&lt;p style=&quot;margin: 0px ; margin-top: 4px ; text-align: center ; text-decoration: underline&quot;&gt;마이 페이지 (MY)&lt;/p&gt;" style="verticalAlign=middle;align=center;overflow=fill;fontSize=12;fontFamily=Helvetica;html=1;rounded=1;fontStyle=1;strokeWidth=3;fillColor=#E6FFCC" vertex="1" parent="1">
          <mxGeometry x="380" y="340" width="140" height="30" as="geometry" />
        </mxCell>
        <mxCell id="M7rPKfQgBQblH7y-iEyT-117" value="&lt;p style=&quot;margin: 0px ; margin-top: 4px ; text-align: center ; text-decoration: underline&quot;&gt;최근 본 작품&lt;/p&gt;" style="verticalAlign=middle;align=center;overflow=fill;fontSize=12;fontFamily=Helvetica;html=1;rounded=1;fontStyle=1;strokeWidth=3;fillColor=#E6FFCC" vertex="1" parent="1">
          <mxGeometry x="20" y="480" width="105" height="30" as="geometry" />
        </mxCell>
        <mxCell id="M7rPKfQgBQblH7y-iEyT-118" value="&lt;p style=&quot;margin: 0px ; margin-top: 4px ; text-align: center ; text-decoration: underline&quot;&gt;관심 작품&lt;/p&gt;" style="verticalAlign=middle;align=center;overflow=fill;fontSize=12;fontFamily=Helvetica;html=1;rounded=1;fontStyle=1;strokeWidth=3;fillColor=#E6FFCC" vertex="1" parent="1">
          <mxGeometry x="170" y="480" width="105" height="30" as="geometry" />
        </mxCell>
        <mxCell id="M7rPKfQgBQblH7y-iEyT-119" value="&lt;p style=&quot;margin: 0px ; margin-top: 4px ; text-align: center ; text-decoration: underline&quot;&gt;내 작품&lt;/p&gt;" style="verticalAlign=middle;align=center;overflow=fill;fontSize=12;fontFamily=Helvetica;html=1;rounded=1;fontStyle=1;strokeWidth=3;fillColor=#E6FFCC" vertex="1" parent="1">
          <mxGeometry x="320" y="480" width="105" height="30" as="geometry" />
        </mxCell>
        <mxCell id="M7rPKfQgBQblH7y-iEyT-121" value="&lt;p style=&quot;margin: 0px ; margin-top: 4px ; text-align: center ; text-decoration: underline&quot;&gt;작품 올리기&lt;/p&gt;" style="verticalAlign=middle;align=center;overflow=fill;fontSize=12;fontFamily=Helvetica;html=1;rounded=1;fontStyle=1;strokeWidth=3;fillColor=#E6FFCC" vertex="1" parent="1">
          <mxGeometry x="470" y="480" width="105" height="30" as="geometry" />
        </mxCell>
        <mxCell id="M7rPKfQgBQblH7y-iEyT-147" style="edgeStyle=orthogonalEdgeStyle;rounded=0;orthogonalLoop=1;jettySize=auto;html=1;exitX=0.5;exitY=1;exitDx=0;exitDy=0;" edge="1" parent="1" source="M7rPKfQgBQblH7y-iEyT-137" target="M7rPKfQgBQblH7y-iEyT-143">
          <mxGeometry relative="1" as="geometry" />
        </mxCell>
        <mxCell id="M7rPKfQgBQblH7y-iEyT-148" style="edgeStyle=orthogonalEdgeStyle;rounded=0;orthogonalLoop=1;jettySize=auto;html=1;exitX=0.5;exitY=1;exitDx=0;exitDy=0;entryX=0.5;entryY=0;entryDx=0;entryDy=0;" edge="1" parent="1" source="M7rPKfQgBQblH7y-iEyT-137" target="M7rPKfQgBQblH7y-iEyT-144">
          <mxGeometry relative="1" as="geometry" />
        </mxCell>
        <mxCell id="M7rPKfQgBQblH7y-iEyT-149" style="edgeStyle=orthogonalEdgeStyle;rounded=0;orthogonalLoop=1;jettySize=auto;html=1;exitX=0.5;exitY=1;exitDx=0;exitDy=0;entryX=0.5;entryY=0;entryDx=0;entryDy=0;" edge="1" parent="1" source="M7rPKfQgBQblH7y-iEyT-137" target="M7rPKfQgBQblH7y-iEyT-145">
          <mxGeometry relative="1" as="geometry" />
        </mxCell>
        <mxCell id="M7rPKfQgBQblH7y-iEyT-150" style="edgeStyle=orthogonalEdgeStyle;rounded=0;orthogonalLoop=1;jettySize=auto;html=1;exitX=0.5;exitY=1;exitDx=0;exitDy=0;" edge="1" parent="1" source="M7rPKfQgBQblH7y-iEyT-137" target="M7rPKfQgBQblH7y-iEyT-146">
          <mxGeometry relative="1" as="geometry" />
        </mxCell>
        <mxCell id="M7rPKfQgBQblH7y-iEyT-137" value="&lt;p style=&quot;margin: 0px ; margin-top: 4px ; text-align: center ; text-decoration: underline&quot;&gt;&lt;span&gt;메인 페이지&lt;/span&gt;&lt;br&gt;&lt;/p&gt;" style="verticalAlign=middle;align=center;overflow=fill;fontSize=12;fontFamily=Helvetica;html=1;rounded=1;fontStyle=1;strokeWidth=3;fillColor=#E6FFCC" vertex="1" parent="1">
          <mxGeometry x="800" y="160" width="150" height="30" as="geometry" />
        </mxCell>
        <mxCell id="M7rPKfQgBQblH7y-iEyT-143" value="&lt;p style=&quot;margin: 0px ; margin-top: 4px ; text-align: center ; text-decoration: underline&quot;&gt;랭킹&lt;/p&gt;" style="verticalAlign=middle;align=center;overflow=fill;fontSize=12;fontFamily=Helvetica;html=1;rounded=1;fontStyle=1;strokeWidth=3;fillColor=#E6FFCC" vertex="1" parent="1">
          <mxGeometry x="597.5" y="230" width="105" height="30" as="geometry" />
        </mxCell>
        <mxCell id="M7rPKfQgBQblH7y-iEyT-144" value="&lt;p style=&quot;margin: 0px ; margin-top: 4px ; text-align: center ; text-decoration: underline&quot;&gt;판타지&lt;/p&gt;" style="verticalAlign=middle;align=center;overflow=fill;fontSize=12;fontFamily=Helvetica;html=1;rounded=1;fontStyle=1;strokeWidth=3;fillColor=#E6FFCC" vertex="1" parent="1">
          <mxGeometry x="747.5" y="230" width="105" height="30" as="geometry" />
        </mxCell>
        <mxCell id="M7rPKfQgBQblH7y-iEyT-145" value="&lt;p style=&quot;margin: 0px ; margin-top: 4px ; text-align: center ; text-decoration: underline&quot;&gt;무협&lt;/p&gt;" style="verticalAlign=middle;align=center;overflow=fill;fontSize=12;fontFamily=Helvetica;html=1;rounded=1;fontStyle=1;strokeWidth=3;fillColor=#E6FFCC" vertex="1" parent="1">
          <mxGeometry x="897.5" y="230" width="105" height="30" as="geometry" />
        </mxCell>
        <mxCell id="M7rPKfQgBQblH7y-iEyT-146" value="&lt;p style=&quot;margin: 0px ; margin-top: 4px ; text-align: center ; text-decoration: underline&quot;&gt;로멘스&lt;/p&gt;" style="verticalAlign=middle;align=center;overflow=fill;fontSize=12;fontFamily=Helvetica;html=1;rounded=1;fontStyle=1;strokeWidth=3;fillColor=#E6FFCC" vertex="1" parent="1">
          <mxGeometry x="1047.5" y="230" width="105" height="30" as="geometry" />
        </mxCell>
      </root>
    </mxGraphModel>
  </diagram>
</mxfile>
